<svg width="60" height="22" viewBox="0 0 60 22" fill="none" xmlns="http://www.w3.org/2000/svg">
<path d="M4.203 0.421L4.082 1.257H1.145V3.732H3.697V4.568H1.145V7.164H4.291V8H0.1V0.421H4.203ZM10.0237 8L9.45172 6.097H6.58072L6.00872 8H4.95272L7.38372 0.421H8.70372L11.1237 8H10.0237ZM6.83372 5.25H9.19872L8.02172 1.29L6.83372 5.25ZM14.5144 4.788H13.3374V8H12.2924V0.421H14.2834C15.2294 0.421 15.9444 0.600666 16.4284 0.96C16.9197 1.31933 17.1654 1.85467 17.1654 2.566C17.1654 3.094 17.0297 3.523 16.7584 3.853C16.487 4.183 16.0764 4.43233 15.5264 4.601L17.5724 8H16.3294L14.5144 4.788ZM14.3934 3.985C14.9434 3.985 15.3577 3.875 15.6364 3.655C15.915 3.42767 16.0544 3.06467 16.0544 2.566C16.0544 2.09667 15.9114 1.75933 15.6254 1.554C15.3467 1.34133 14.8957 1.235 14.2724 1.235H13.3374V3.985H14.3934ZM23.2147 0.421L23.1047 1.312H21.0037V8H19.9587V1.312H17.8027V0.421H23.2147ZM28.6553 8V4.447H25.4653V8H24.4203V0.421H25.4653V3.589H28.6553V0.421H29.7003V8H28.6553ZM2.091 13.421C3.02967 13.421 3.75567 13.619 4.269 14.015C4.78233 14.4037 5.039 14.9867 5.039 15.764C5.039 16.5927 4.77133 17.2087 4.236 17.612C3.70067 18.0153 2.98933 18.217 2.102 18.217H1.145V21H0.1V13.421H2.091ZM2.058 17.392C2.66667 17.392 3.12867 17.2747 3.444 17.04C3.76667 16.8053 3.928 16.3837 3.928 15.775C3.928 15.2323 3.76667 14.84 3.444 14.598C3.12867 14.356 2.674 14.235 2.08 14.235H1.145V17.392H2.058ZM11.6836 18.569C11.6836 19.075 11.5773 19.5223 11.3646 19.911C11.1593 20.2923 10.8549 20.593 10.4516 20.813C10.0556 21.0257 9.57894 21.132 9.0216 21.132C8.17827 21.132 7.5256 20.901 7.0636 20.439C6.60893 19.9697 6.3816 19.3463 6.3816 18.569V13.421H7.4266V18.492C7.4266 19.0787 7.5586 19.5187 7.8226 19.812C8.0866 20.1053 8.48627 20.252 9.0216 20.252C9.56427 20.252 9.9676 20.109 10.2316 19.823C10.4956 19.5297 10.6276 19.086 10.6276 18.492V13.421H11.6836V18.569ZM14.8198 13.421V20.087H17.9328L17.8118 21H13.7748V13.421H14.8198ZM20.9622 13.289C21.4682 13.289 21.9009 13.3623 22.2602 13.509C22.6195 13.6483 22.9679 13.8683 23.3052 14.169L22.7332 14.807C22.4472 14.5797 22.1649 14.4147 21.8862 14.312C21.6149 14.202 21.3215 14.147 21.0062 14.147C20.6102 14.147 20.2839 14.2387 20.0272 14.422C19.7705 14.6053 19.6422 14.873 19.6422 15.225C19.6422 15.445 19.6862 15.632 19.7742 15.786C19.8622 15.9327 20.0235 16.0683 20.2582 16.193C20.5002 16.3177 20.8485 16.4497 21.3032 16.589C21.7799 16.7357 22.1759 16.8933 22.4912 17.062C22.8065 17.2307 23.0595 17.4653 23.2502 17.766C23.4482 18.0593 23.5472 18.4333 23.5472 18.888C23.5472 19.328 23.4372 19.7167 23.2172 20.054C23.0045 20.3913 22.6929 20.6553 22.2822 20.846C21.8789 21.0367 21.3985 21.132 20.8412 21.132C19.7925 21.132 18.9345 20.8057 18.2672 20.153L18.8392 19.515C19.1472 19.7643 19.4589 19.955 19.7742 20.087C20.0895 20.2117 20.4415 20.274 20.8302 20.274C21.2995 20.274 21.6882 20.1603 21.9962 19.933C22.3042 19.6983 22.4582 19.361 22.4582 18.921C22.4582 18.6717 22.4105 18.4663 22.3152 18.305C22.2199 18.1363 22.0549 17.986 21.8202 17.854C21.5929 17.722 21.2592 17.59 20.8192 17.458C20.0419 17.2233 19.4735 16.941 19.1142 16.611C18.7549 16.281 18.5752 15.8337 18.5752 15.269C18.5752 14.8877 18.6742 14.5467 18.8722 14.246C19.0775 13.9453 19.3599 13.7107 19.7192 13.542C20.0859 13.3733 20.5002 13.289 20.9622 13.289ZM29.1893 13.421L29.0683 14.257H26.1313V16.732H28.6833V17.568H26.1313V20.164H29.2773V21H25.0863V13.421H29.1893Z" fill="black"/>
<path d="M38.684 13.421L37.144 21H35.802L34.405 14.653L32.997 21H31.688L30.148 13.421H31.171L32.392 20.087L33.855 13.421H34.966L36.462 20.087L37.727 13.421H38.684ZM43.5779 19.647C43.5779 19.8817 43.6183 20.0577 43.6989 20.175C43.7796 20.285 43.9006 20.3693 44.0619 20.428L43.8309 21.132C43.5303 21.0953 43.2883 21.011 43.1049 20.879C42.9216 20.747 42.7859 20.5417 42.6979 20.263C42.3093 20.8423 41.7336 21.132 40.9709 21.132C40.3989 21.132 39.9479 20.9707 39.6179 20.648C39.2879 20.3253 39.1229 19.9037 39.1229 19.383C39.1229 18.767 39.3429 18.294 39.7829 17.964C40.2303 17.634 40.8609 17.469 41.6749 17.469H42.5659V17.04C42.5659 16.6293 42.4669 16.336 42.2689 16.16C42.0709 15.984 41.7666 15.896 41.3559 15.896C40.9306 15.896 40.4099 15.9987 39.7939 16.204L39.5409 15.467C40.2596 15.203 40.9269 15.071 41.5429 15.071C42.2249 15.071 42.7346 15.2397 43.0719 15.577C43.4093 15.907 43.5779 16.38 43.5779 16.996V19.647ZM41.2019 20.373C41.7813 20.373 42.2359 20.0723 42.5659 19.471V18.14H41.8069C40.7363 18.14 40.2009 18.536 40.2009 19.328C40.2009 19.6727 40.2853 19.933 40.4539 20.109C40.6226 20.285 40.8719 20.373 41.2019 20.373ZM48.5823 20.736C48.201 21 47.7683 21.132 47.2843 21.132C46.793 21.132 46.408 20.9927 46.1293 20.714C45.858 20.428 45.7223 20.0173 45.7223 19.482V15.984H44.7103V15.203H45.7223V13.894L46.7343 13.773V15.203H48.1093L47.9993 15.984H46.7343V19.438C46.7343 19.7387 46.7857 19.9587 46.8883 20.098C46.9983 20.23 47.178 20.296 47.4273 20.296C47.6547 20.296 47.9113 20.219 48.1973 20.065L48.5823 20.736ZM51.5818 15.071C51.9265 15.071 52.2418 15.1223 52.5278 15.225C52.8138 15.3203 53.0888 15.478 53.3528 15.698L52.8688 16.336C52.6635 16.1893 52.4618 16.083 52.2638 16.017C52.0731 15.9437 51.8605 15.907 51.6258 15.907C51.1565 15.907 50.7898 16.094 50.5258 16.468C50.2691 16.842 50.1408 17.3957 50.1408 18.129C50.1408 18.8623 50.2691 19.405 50.5258 19.757C50.7825 20.1017 51.1491 20.274 51.6258 20.274C51.8531 20.274 52.0621 20.241 52.2528 20.175C52.4435 20.1017 52.6561 19.988 52.8908 19.834L53.3528 20.494C52.8248 20.9193 52.2345 21.132 51.5818 21.132C50.7971 21.132 50.1775 20.868 49.7228 20.34C49.2755 19.812 49.0518 19.0823 49.0518 18.151C49.0518 17.535 49.1545 16.996 49.3598 16.534C49.5651 16.072 49.8548 15.7127 50.2288 15.456C50.6101 15.1993 51.0611 15.071 51.5818 15.071ZM57.4507 15.071C57.9787 15.071 58.3894 15.2287 58.6827 15.544C58.9834 15.8593 59.1337 16.292 59.1337 16.842V21H58.1217V16.985C58.1217 16.5743 58.0411 16.2847 57.8797 16.116C57.7257 15.9473 57.4984 15.863 57.1977 15.863C56.8971 15.863 56.6294 15.951 56.3947 16.127C56.1601 16.303 55.9401 16.5523 55.7347 16.875V21H54.7227V12.882L55.7347 12.772V16.006C56.1894 15.3827 56.7614 15.071 57.4507 15.071Z" fill="#D0EA7A"/>
</svg>
